<svg viewBox="0 0 800 300" xmlns="http://www.w3.org/2000/svg">
  <defs>
    <linearGradient id="bgGrad" x1="0%" y1="0%" x2="100%" y2="100%">
      <stop offset="0%" stop-color="#0d1117"/>
      <stop offset="50%" stop-color="#161b22"/>
      <stop offset="100%" stop-color="#21262d"/>
    </linearGradient>
    
    <linearGradient id="textGrad" x1="0%" y1="0%" x2="100%" y2="0%">
      <stop offset="0%" stop-color="#58a6ff"/>
      <stop offset="50%" stop-color="#79c0ff"/>
      <stop offset="100%" stop-color="#a5f3fc"/>
    </linearGradient>
    
    <linearGradient id="accentGrad" x1="0%" y1="0%" x2="100%" y2="0%">
      <stop offset="0%" stop-color="#f78166"/>
      <stop offset="50%" stop-color="#ff7b72"/>
      <stop offset="100%" stop-color="#ffa657"/>
    </linearGradient>
  </defs>
  
  <!-- Background -->
  <rect width="800" height="300" fill="url(#bgGrad)" rx="15"/>
  
  <!-- Circuit pattern background -->
  <g opacity="0.2">
    <path d="M50 50 L150 50 L150 100 L250 100" stroke="#58a6ff" stroke-width="1" fill="none"/>
    <path d="M750 250 L650 250 L650 200 L550 200" stroke="#58a6ff" stroke-width="1" fill="none"/>
    <circle cx="150" cy="50" r="3" fill="#58a6ff"/>
    <circle cx="150" cy="100" r="3" fill="#58a6ff"/>
    <circle cx="650" cy="250" r="3" fill="#58a6ff"/>
    <circle cx="650" cy="200" r="3" fill="#58a6ff"/>
  </g>
  
  <!-- Floating code elements -->
  <g opacity="0.6">
    <text x="70" y="80" font-family="Courier New, monospace" font-size="14" fill="#79c0ff">def hello():</text>
    <text x="85" y="100" font-family="Courier New, monospace" font-size="12" fill="#a5f3fc">print("AI")</text>
  </g>
  
  <g opacity="0.5">
    <text x="650" y="60" font-family="Courier New, monospace" font-size="12" fill="#ffa657">&lt;Robot/&gt;</text>
    <text x="630" y="80" font-family="Courier New, monospace" font-size="10" fill="#ff7b72">while(true)</text>
  </g>
  
  <g opacity="0.4">
    <text x="80" y="220" font-family="Courier New, monospace" font-size="11" fill="#79c0ff">import torch</text>
    <text x="650" y="230" font-family="Courier New, monospace" font-size="11" fill="#a5f3fc">ros2 run</text>
  </g>
  
  <!-- Programming symbols scattered -->
  <text x="200" y="40" font-family="'Courier New', monospace" font-size="16" fill="#58a6ff" opacity="0.3">{}</text>
  <text x="550" y="45" font-family="'Courier New', monospace" font-size="18" fill="#f78166" opacity="0.4">[]</text>
  <text x="150" y="250" font-family="'Courier New', monospace" font-size="20" fill="#79c0ff" opacity="0.3">()</text>
  <text x="600" y="280" font-family="'Courier New', monospace" font-size="14" fill="#ffa657" opacity="0.4">;</text>
  
  <!-- Main title -->
  <g transform="translate(400, 120)">
    <text x="-180" y="0" font-family="Arial Black, sans-serif" font-size="32" font-weight="bold" fill="url(#textGrad)">Hi!</text>
    <text x="-120" y="0" font-family="Arial, sans-serif" font-size="28" fill="#e6edf3">I'm</text>
    <text x="-55" y="0" font-family="Arial Black, sans-serif" font-size="36" font-weight="bold" fill="url(#accentGrad)">IzzulGod</text>
  </g>
  
  <!-- Subtitle -->
  <text x="400" y="170" font-family="Arial, sans-serif" font-size="18" fill="#7d8590" text-anchor="middle">AI &amp; Robotics Enthusiast</text>
  
  <!-- Terminal-like element -->
  <g transform="translate(250, 200)">
    <rect x="0" y="0" width="300" height="60" rx="8" fill="#0d1117" stroke="#30363d" stroke-width="1" opacity="0.8"/>
    <circle cx="15" cy="15" r="4" fill="#ff5f56"/>
    <circle cx="35" cy="15" r="4" fill="#ffbd2e"/>
    <circle cx="55" cy="15" r="4" fill="#27ca3f"/>
    <text x="15" y="40" font-family="Courier New, monospace" font-size="12" fill="#58a6ff">~/projects/robot-brain$</text>
    <text x="180" y="40" font-family="Courier New, monospace" font-size="12" fill="#e6edf3">python main.py</text>
    <rect x="280" y="32" width="8" height="14" fill="#58a6ff"/>
  </g>
  
  <!-- Decorative elements -->
  <g opacity="0.6">
    <circle cx="120" cy="150" r="8" fill="#3776ab"/>
    <circle cx="135" cy="150" r="8" fill="#ffd43b"/>
    <text x="650" y="120" font-family="Arial Black, sans-serif" font-size="20" fill="#00599c" opacity="0.7">C++</text>
    <g transform="translate(680, 150)">
      <rect x="0" y="0" width="20" height="15" rx="3" fill="#79c0ff" opacity="0.6"/>
      <circle cx="5" cy="5" r="2" fill="#0d1117"/>
      <circle cx="15" cy="5" r="2" fill="#0d1117"/>
      <rect x="8" y="10" width="4" height="3" fill="#0d1117"/>
    </g>
  </g>
  
  <!-- Connecting lines -->
  <path d="M100 150 Q200 150 250 180" stroke="#58a6ff" stroke-width="2" fill="none" opacity="0.3"/>
  <path d="M550 180 Q650 150 700 150" stroke="#f78166" stroke-width="2" fill="none" opacity="0.3"/>
</svg>
